# xmcd CD database file
#
# Track frame offsets:
#	150
#	22429
#	54381
#	79462
#	92358
#	119922
#	147542
#	152937
#
# Disc length: 3049 seconds
#
# Revision: 0
# Processed by: cddbd v1.5.2PL0 Copyright (c) Steve Scherf et al.
# Submitted via: CDex 1.70beta2
#
DISCID=760be708
DTITLE=Benoit Martiny - Jazz Goes Garage
DYEAR=2005
DGENRE=Jazz
TTITLE0=Bushfire
TTITLE1=Running In Circles
TTITLE2=Jazz 'n' Roll
TTITLE3=Irene's Decision
TTITLE4=The Gargage Blues
TTITLE5=Winterhope
TTITLE6=Traveling
TTITLE7=Spiritual Revolution
EXTD=YEAR: 2005
EXTT0=
EXTT1=
EXTT2=
EXTT3=
EXTT4=
EXTT5=
EXTT6=
EXTT7=
PLAYORDER=
